<svg width="30" height="30" viewBox="0 0 30 30" fill="none" xmlns="http://www.w3.org/2000/svg">
<g filter="url(#filter0_f_424_21)">
<path d="M8.96875 4V6.15625H5.9375L5 7.125V12.0625L11 19.0938H14.9062V24.25H12.9688V25.2188C12.9688 25.2188 11.9375 25.1367 11.9375 25.2188V28.0312H15.9688H20.0312V25.2188C20.0312 25.1367 19 25.2188 19 25.2188V24.25H17.0312V19.0938H20.9688L26.9688 12.0625V7.125L26.0312 6.15625H23V4H15.9688H8.96875ZM6.96875 8.09375H9.03125C9.03125 8.13475 8.96875 11.0625 8.96875 11.0625L12.625 17.0938H11.1562L6.96875 10.9062V8.09375ZM22.9062 8.09375H25V10.9062L20.7812 17.0938H19.3125L23 11.0625C23 11.0625 22.9062 8.13455 22.9062 8.09375Z" fill="#533302"/>
</g>
<path d="M7.96875 2V4.15625H4.9375L4 5.125V10.0625L10 17.0938H13.9062V22.25H11.9688V23.2188C11.9688 23.2188 10.9375 23.1367 10.9375 23.2188V26.0312H14.9688H19.0312V23.2188C19.0312 23.1367 18 23.2188 18 23.2188V22.25H16.0312V17.0938H19.9688L25.9688 10.0625V5.125L25.0312 4.15625H22V2H14.9688H7.96875ZM5.96875 6.09375H8.03125C8.03125 6.13475 7.96875 9.0625 7.96875 9.0625L11.625 15.0938H10.1562L5.96875 8.90625V6.09375ZM21.9062 6.09375H24V8.90625L19.7812 15.0938H18.3125L22 9.0625C22 9.0625 21.9062 6.13455 21.9062 6.09375Z" fill="#FFE3B9"/>
<defs>
<filter id="filter0_f_424_21" x="4" y="3" width="23.9688" height="26.0312" filterUnits="userSpaceOnUse" color-interpolation-filters="sRGB">
<feFlood flood-opacity="0" result="BackgroundImageFix"/>
<feBlend mode="normal" in="SourceGraphic" in2="BackgroundImageFix" result="shape"/>
<feGaussianBlur stdDeviation="0.5" result="effect1_foregroundBlur_424_21"/>
</filter>
</defs>
</svg>
