<svg width="32" height="32" viewBox="0 0 32 32" fill="none" xmlns="http://www.w3.org/2000/svg">
<g clip-path="url(#clip0_432_62)">
<g filter="url(#filter0_f_432_62)">
<path d="M22.6293 5.92308C18.897 9.99359 11.4131 18.1538 11.3359 18.2308C12.9558 19.1524 13.7539 19.8787 14.7143 21.6923L27.2625 10.0577C28.2836 7.45359 28.6334 6.14873 29 4C26.7069 4.49558 25.3194 4.90663 22.6293 5.92308Z" fill="#533302"/>
<path d="M7.66795 17.4615L6.3166 18.7115L14.3282 26.5962L15.6795 25.0577C13.3543 21.2394 11.529 19.4808 7.66795 17.4615Z" fill="#533302"/>
<path d="M8.05405 22.0769L6.22008 24.3846C7.84532 24.9175 8.29032 25.4546 8.53668 26.6923L10.9498 24.8654L8.05405 22.0769Z" fill="#533302"/>
<path d="M7.4749 27.2692C7.4749 28.2251 6.69702 29 5.73745 29C4.77788 29 4 28.2251 4 27.2692C4 26.3134 4.77788 25.5385 5.73745 25.5385C6.69702 25.5385 7.4749 26.3134 7.4749 27.2692Z" fill="#533302"/>
</g>
<path d="M21.6293 4.92308C17.897 8.99359 10.4131 17.1538 10.3359 17.2308C11.9558 18.1524 12.7539 18.8787 13.7143 20.6923L26.2625 9.05769C27.2836 6.45359 27.6334 5.14873 28 3C25.7069 3.49558 24.3194 3.90663 21.6293 4.92308Z" fill="#FFE3B9"/>
<path d="M6.66795 16.4615L5.3166 17.7115L13.3282 25.5962L14.6795 24.0577C12.3543 20.2394 10.529 18.4808 6.66795 16.4615Z" fill="#FFE3B9"/>
<path d="M7.05405 21.0769L5.22008 23.3846C6.84532 23.9175 7.29032 24.4546 7.53668 25.6923L9.94981 23.8654L7.05405 21.0769Z" fill="#FFE3B9"/>
<path d="M6.4749 26.2692C6.4749 27.2251 5.69702 28 4.73745 28C3.77788 28 3 27.2251 3 26.2692C3 25.3134 3.77788 24.5385 4.73745 24.5385C5.69702 24.5385 6.4749 25.3134 6.4749 26.2692Z" fill="#FFE3B9"/>
</g>
<defs>
<filter id="filter0_f_432_62" x="0" y="0" width="33" height="33" filterUnits="userSpaceOnUse" color-interpolation-filters="sRGB">
<feFlood flood-opacity="0" result="BackgroundImageFix"/>
<feBlend mode="normal" in="SourceGraphic" in2="BackgroundImageFix" result="shape"/>
<feGaussianBlur stdDeviation="2" result="effect1_foregroundBlur_432_62"/>
</filter>
<clipPath id="clip0_432_62">
<rect width="32" height="32" fill="white"/>
</clipPath>
</defs>
</svg>
