<svg width="30" height="30" viewBox="0 0 30 30" fill="none" xmlns="http://www.w3.org/2000/svg">
    <g clip-path="url(#clip0_166_12)">
    <g filter="url(#filter0_d_166_12)">
    <path d="M10.4722 26.7201C9.35533 26.7201 8.5044 26.4401 7.91938 25.8801C7.36096 25.3201 7.08174 24.6001 7.08174 23.7201C7.08174 22.8934 7.30777 22.1467 7.75983 21.48C8.21189 20.7867 8.7969 20.24 9.51488 19.84C10.2594 19.4134 11.0173 19.2 11.7885 19.2C12.1076 19.2 12.4267 19.24 12.7458 19.32C13.0649 19.3734 13.3707 19.48 13.6632 19.64V1H16.7345V19.84C16.7345 21.28 16.4287 22.52 15.8171 23.5601C15.2321 24.5734 14.4609 25.3601 13.5036 25.9201C12.5463 26.4534 11.5358 26.7201 10.4722 26.7201Z" fill="#FFE3B9"/>
    <path d="M14.9089 5.67638C15.15 4.29829 15.1018 3.89105 16.7517 2.55637C16.8456 3.89091 17.2583 4.72984 17.5144 4.89163C17.7705 5.05343 18.0049 5.31646 19.0347 4.82838C20.0645 4.34031 20.77 2.72725 20.77 2.72725C20.77 2.72725 22.2903 2.66397 23.7032 3.6196C25.116 4.57522 25.5511 5.2334 25.8787 6.91052C26.2063 8.58763 26.0008 12.7707 23.6058 14.1061C21.2109 15.4416 17.5246 14.3592 17.5246 14.3592L18.9323 10.5811C18.9323 10.5811 19.9252 13.5448 22.3005 12.1316C24.6759 10.7184 24.1433 9.01158 23.2731 7.69522C22.4029 6.37887 21.1713 5.56525 20 6.5C18.8287 7.43475 18.0621 9.26471 17.0844 8.96726C16.1067 8.66981 15.2523 6.64131 14.9089 5.67638Z" fill="#FFE3B9"/>
    <path d="M11.0705 17.8C10.6056 17.5591 3.89068 24.1996 3.09293 24.1996C2.29518 24.1996 6.79895 26.519 10.2727 29C14.6215 25.0826 17.1762 23.2797 16.6547 21C14.3023 20.7552 11.5354 18.041 11.0705 17.8Z" fill="#FFE3B9"/>
    </g>
    </g>
    <defs>
    <filter id="filter0_d_166_12" x="3" y="1" width="25.4" height="29.4" filterUnits="userSpaceOnUse" color-interpolation-filters="sRGB">
    <feFlood flood-opacity="0" result="BackgroundImageFix"/>
    <feColorMatrix in="SourceAlpha" type="matrix" values="0 0 0 0 0 0 0 0 0 0 0 0 0 0 0 0 0 0 127 0" result="hardAlpha"/>
    <feOffset dx="2" dy="1"/>
    <feGaussianBlur stdDeviation="0.2"/>
    <feComposite in2="hardAlpha" operator="out"/>
    <feColorMatrix type="matrix" values="0 0 0 0 0.32549 0 0 0 0 0.2 0 0 0 0 0.00784314 0 0 0 1 0"/>
    <feBlend mode="normal" in2="BackgroundImageFix" result="effect1_dropShadow_166_12"/>
    <feBlend mode="normal" in="SourceGraphic" in2="effect1_dropShadow_166_12" result="shape"/>
    </filter>
    <clipPath id="clip0_166_12">
    <rect width="30" height="30" fill="white"/>
    </clipPath>
    </defs>
    </svg>
    